<svg xmlns="http://www.w3.org/2000/svg" xmlns:xlink="http://www.w3.org/1999/xlink" contentStyleType="text/css" data-diagram-type="CLASS" height="499px" preserveAspectRatio="none" style="width:1080px;height:499px;background:#FFFFFF;" version="1.1" viewBox="0 0 1080 499" width="1080px" zoomAndPan="magnify"><?plantuml 1.2026.4beta2?><defs/><g><g class="title" data-source-line="9"><text fill="#000000" font-family="sans-serif" font-size="14" font-weight="700" lengthAdjust="spacing" textLength="460.4482" x="306.485" y="22.9951">Coarse-grained Cleaner Execution Order Recommendation</text></g><!--class SINGLE_END--><g class="entity" data-qualified-name="SINGLE_END" data-source-line="16" id="ent0002"><rect fill="#F1F1F1" height="32" rx="2.5" ry="2.5" style="stroke:#181818;stroke-width:0.5;" width="120.0811" x="409.26" y="193.8969"/><ellipse cx="424.26" cy="209.8969" fill="#DA70D6" rx="11" ry="11" style="stroke:#181818;stroke-width:1;"/><path d="M424.3694,205.475 Q423.4319,205.475 422.9944,206.475 Q422.5725,207.475 422.5725,209.7094 Q422.5725,211.9438 422.9944,212.9438 Q423.4319,213.9438 424.3694,213.9438 Q425.3225,213.9438 425.7444,212.9438 Q426.1819,211.9438 426.1819,209.7094 Q426.1819,207.475 425.7444,206.475 Q425.3225,205.475 424.3694,205.475 Z M420.0256,209.7094 Q420.0256,206.5375 421.1194,204.9125 Q422.2288,203.2719 424.3694,203.2719 Q426.5256,203.2719 427.6194,204.9125 Q428.7288,206.5375 428.7288,209.7094 Q428.7288,212.8813 427.6194,214.5063 Q426.5256,216.1313 424.3694,216.1313 Q422.2288,216.1313 421.1194,214.5063 Q420.0256,212.8813 420.0256,209.7094 Z " fill="#000000"/><text fill="#000000" font-family="sans-serif" font-size="14" lengthAdjust="spacing" textLength="88.0811" x="438.26" y="214.7436">SINGLE_END</text></g><!--class level_1_end--><g class="entity" data-qualified-name="level_1_end" data-source-line="18" id="ent0003"><rect fill="#F1F1F1" height="32" rx="2.5" ry="2.5" style="stroke:#181818;stroke-width:0.5;" width="114.5713" x="667.02" y="64.5969"/><ellipse cx="682.02" cy="80.5969" fill="#DA70D6" rx="11" ry="11" style="stroke:#181818;stroke-width:1;"/><path d="M682.1294,76.175 Q681.1919,76.175 680.7544,77.175 Q680.3325,78.175 680.3325,80.4094 Q680.3325,82.6438 680.7544,83.6438 Q681.1919,84.6438 682.1294,84.6438 Q683.0825,84.6438 683.5044,83.6438 Q683.9419,82.6438 683.9419,80.4094 Q683.9419,78.175 683.5044,77.175 Q683.0825,76.175 682.1294,76.175 Z M677.7856,80.4094 Q677.7856,77.2375 678.8794,75.6125 Q679.9888,73.9719 682.1294,73.9719 Q684.2856,73.9719 685.3794,75.6125 Q686.4888,77.2375 686.4888,80.4094 Q686.4888,83.5813 685.3794,85.2063 Q684.2856,86.8313 682.1294,86.8313 Q679.9888,86.8313 678.8794,85.2063 Q677.7856,83.5813 677.7856,80.4094 Z " fill="#000000"/><text fill="#000000" font-family="sans-serif" font-size="14" lengthAdjust="spacing" textLength="82.5713" x="696.02" y="85.4436">level_1_end</text></g><!--class 0--><g class="entity" data-qualified-name="0" data-source-line="20" id="ent0004"><rect fill="#F1F1F1" height="72.5938" rx="2.5" ry="2.5" style="stroke:#181818;stroke-width:0.5;" width="170.6074" x="7" y="302.8969"/><ellipse cx="83.6001" cy="318.8969" fill="#DA70D6" rx="11" ry="11" style="stroke:#181818;stroke-width:1;"/><path d="M83.7095,314.475 Q82.772,314.475 82.3345,315.475 Q81.9126,316.475 81.9126,318.7094 Q81.9126,320.9437 82.3345,321.9437 Q82.772,322.9437 83.7095,322.9437 Q84.6626,322.9437 85.0845,321.9437 Q85.522,320.9437 85.522,318.7094 Q85.522,316.475 85.0845,315.475 Q84.6626,314.475 83.7095,314.475 Z M79.3657,318.7094 Q79.3657,315.5375 80.4595,313.9125 Q81.5688,312.2719 83.7095,312.2719 Q85.8657,312.2719 86.9595,313.9125 Q88.0688,315.5375 88.0688,318.7094 Q88.0688,321.8812 86.9595,323.5062 Q85.8657,325.1312 83.7095,325.1312 Q81.5688,325.1312 80.4595,323.5062 Q79.3657,321.8812 79.3657,318.7094 Z " fill="#000000"/><text fill="#000000" font-family="sans-serif" font-size="14" lengthAdjust="spacing" textLength="8.9072" x="104.1001" y="323.7436">0</text><line style="stroke:#181818;stroke-width:0.5;" x1="8" x2="176.6074" y1="334.8969" y2="334.8969"/><text fill="#000000" font-family="sans-serif" font-size="14" lengthAdjust="spacing" textLength="135.666" x="13" y="351.892">source=brewery_id</text><text fill="#000000" font-family="sans-serif" font-size="14" lengthAdjust="spacing" textLength="158.6074" x="13" y="368.1889">target=brewery_name</text></g><!--class 1--><g class="entity" data-qualified-name="1" data-source-line="23" id="ent0005"><rect fill="#F1F1F1" height="72.5938" rx="2.5" ry="2.5" style="stroke:#181818;stroke-width:0.5;" width="147.666" x="212.47" y="302.8969"/><ellipse cx="277.5994" cy="318.8969" fill="#DA70D6" rx="11" ry="11" style="stroke:#181818;stroke-width:1;"/><path d="M277.7088,314.475 Q276.7713,314.475 276.3338,315.475 Q275.9119,316.475 275.9119,318.7094 Q275.9119,320.9437 276.3338,321.9437 Q276.7713,322.9437 277.7088,322.9437 Q278.6619,322.9437 279.0838,321.9437 Q279.5213,320.9437 279.5213,318.7094 Q279.5213,316.475 279.0838,315.475 Q278.6619,314.475 277.7088,314.475 Z M273.365,318.7094 Q273.365,315.5375 274.4588,313.9125 Q275.5681,312.2719 277.7088,312.2719 Q279.865,312.2719 280.9588,313.9125 Q282.0681,315.5375 282.0681,318.7094 Q282.0681,321.8812 280.9588,323.5062 Q279.865,325.1312 277.7088,325.1312 Q275.5681,325.1312 274.4588,323.5062 Q273.365,321.8812 273.365,318.7094 Z " fill="#000000"/><text fill="#000000" font-family="sans-serif" font-size="14" lengthAdjust="spacing" textLength="8.9072" x="298.0994" y="323.7436">1</text><line style="stroke:#181818;stroke-width:0.5;" x1="213.47" x2="359.136" y1="334.8969" y2="334.8969"/><text fill="#000000" font-family="sans-serif" font-size="14" lengthAdjust="spacing" textLength="135.666" x="218.47" y="351.892">source=brewery_id</text><text fill="#000000" font-family="sans-serif" font-size="14" lengthAdjust="spacing" textLength="79.9053" x="218.47" y="368.1889">target=city</text></g><!--class 2--><g class="entity" data-qualified-name="2" data-source-line="26" id="ent0006"><rect fill="#F1F1F1" height="72.5938" rx="2.5" ry="2.5" style="stroke:#181818;stroke-width:0.5;" width="147.666" x="395.47" y="302.8969"/><ellipse cx="460.5994" cy="318.8969" fill="#DA70D6" rx="11" ry="11" style="stroke:#181818;stroke-width:1;"/><path d="M460.7088,314.475 Q459.7713,314.475 459.3338,315.475 Q458.9119,316.475 458.9119,318.7094 Q458.9119,320.9437 459.3338,321.9437 Q459.7713,322.9437 460.7088,322.9437 Q461.6619,322.9437 462.0838,321.9437 Q462.5213,320.9437 462.5213,318.7094 Q462.5213,316.475 462.0838,315.475 Q461.6619,314.475 460.7088,314.475 Z M456.365,318.7094 Q456.365,315.5375 457.4588,313.9125 Q458.5681,312.2719 460.7088,312.2719 Q462.865,312.2719 463.9588,313.9125 Q465.0681,315.5375 465.0681,318.7094 Q465.0681,321.8812 463.9588,323.5062 Q462.865,325.1312 460.7088,325.1312 Q458.5681,325.1312 457.4588,323.5062 Q456.365,321.8812 456.365,318.7094 Z " fill="#000000"/><text fill="#000000" font-family="sans-serif" font-size="14" lengthAdjust="spacing" textLength="8.9072" x="481.0994" y="323.7436">2</text><line style="stroke:#181818;stroke-width:0.5;" x1="396.47" x2="542.136" y1="334.8969" y2="334.8969"/><text fill="#000000" font-family="sans-serif" font-size="14" lengthAdjust="spacing" textLength="135.666" x="401.47" y="351.892">source=brewery_id</text><text fill="#000000" font-family="sans-serif" font-size="14" lengthAdjust="spacing" textLength="90.0088" x="401.47" y="368.1889">target=state</text></g><!--class fd_abv--><g class="entity" data-qualified-name="fd_abv" data-source-line="29" id="ent0007"><rect fill="#F1F1F1" height="72.5938" rx="2.5" ry="2.5" style="stroke:#181818;stroke-width:0.5;" width="226.2383" x="578.18" y="302.8969"/><ellipse cx="663.7659" cy="318.8969" fill="#DA70D6" rx="11" ry="11" style="stroke:#181818;stroke-width:1;"/><path d="M663.8753,314.475 Q662.9378,314.475 662.5003,315.475 Q662.0784,316.475 662.0784,318.7094 Q662.0784,320.9437 662.5003,321.9437 Q662.9378,322.9437 663.8753,322.9437 Q664.8284,322.9437 665.2503,321.9437 Q665.6878,320.9437 665.6878,318.7094 Q665.6878,316.475 665.2503,315.475 Q664.8284,314.475 663.8753,314.475 Z M659.5316,318.7094 Q659.5316,315.5375 660.6253,313.9125 Q661.7347,312.2719 663.8753,312.2719 Q666.0316,312.2719 667.1253,313.9125 Q668.2347,315.5375 668.2347,318.7094 Q668.2347,321.8812 667.1253,323.5062 Q666.0316,325.1312 663.8753,325.1312 Q661.7347,325.1312 660.6253,323.5062 Q659.5316,321.8812 659.5316,318.7094 Z " fill="#000000"/><text fill="#000000" font-family="sans-serif" font-size="14" lengthAdjust="spacing" textLength="46.5664" x="684.2659" y="323.7436">fd_abv</text><line style="stroke:#181818;stroke-width:0.5;" x1="579.18" x2="803.4183" y1="334.8969" y2="334.8969"/><text fill="#000000" font-family="sans-serif" font-size="14" lengthAdjust="spacing" textLength="214.2383" x="584.18" y="351.892">source=beer_namebrewery_id</text><text fill="#000000" font-family="sans-serif" font-size="14" lengthAdjust="spacing" textLength="80.2949" x="584.18" y="368.1889">target=abv</text></g><!--class fd_ibu--><g class="entity" data-qualified-name="fd_ibu" data-source-line="32" id="ent0008"><rect fill="#F1F1F1" height="72.5938" rx="2.5" ry="2.5" style="stroke:#181818;stroke-width:0.5;" width="226.2383" x="839.18" y="302.8969"/><ellipse cx="926.8167" cy="318.8969" fill="#DA70D6" rx="11" ry="11" style="stroke:#181818;stroke-width:1;"/><path d="M926.9261,314.475 Q925.9886,314.475 925.5511,315.475 Q925.1292,316.475 925.1292,318.7094 Q925.1292,320.9437 925.5511,321.9437 Q925.9886,322.9437 926.9261,322.9437 Q927.8792,322.9437 928.3011,321.9437 Q928.7386,320.9437 928.7386,318.7094 Q928.7386,316.475 928.3011,315.475 Q927.8792,314.475 926.9261,314.475 Z M922.5823,318.7094 Q922.5823,315.5375 923.6761,313.9125 Q924.7855,312.2719 926.9261,312.2719 Q929.0823,312.2719 930.1761,313.9125 Q931.2855,315.5375 931.2855,318.7094 Q931.2855,321.8812 930.1761,323.5062 Q929.0823,325.1312 926.9261,325.1312 Q924.7855,325.1312 923.6761,323.5062 Q922.5823,321.8812 922.5823,318.7094 Z " fill="#000000"/><text fill="#000000" font-family="sans-serif" font-size="14" lengthAdjust="spacing" textLength="42.4648" x="947.3167" y="323.7436">fd_ibu</text><line style="stroke:#181818;stroke-width:0.5;" x1="840.18" x2="1064.4183" y1="334.8969" y2="334.8969"/><text fill="#000000" font-family="sans-serif" font-size="14" lengthAdjust="spacing" textLength="214.2383" x="845.18" y="351.892">source=beer_namebrewery_id</text><text fill="#000000" font-family="sans-serif" font-size="14" lengthAdjust="spacing" textLength="76.1934" x="845.18" y="368.1889">target=ibu</text></g><!--class Number_ounces--><g class="entity" data-qualified-name="Number_ounces" data-source-line="35" id="ent0009"><rect fill="#F1F1F1" height="72.5938" rx="2.5" ry="2.5" style="stroke:#181818;stroke-width:0.5;" width="145.1553" x="290.73" y="44.2969"/><ellipse cx="305.73" cy="60.2969" fill="#DA70D6" rx="11" ry="11" style="stroke:#181818;stroke-width:1;"/><path d="M305.8394,55.875 Q304.9019,55.875 304.4644,56.875 Q304.0425,57.875 304.0425,60.1094 Q304.0425,62.3438 304.4644,63.3438 Q304.9019,64.3438 305.8394,64.3438 Q306.7925,64.3438 307.2144,63.3438 Q307.6519,62.3438 307.6519,60.1094 Q307.6519,57.875 307.2144,56.875 Q306.7925,55.875 305.8394,55.875 Z M301.4956,60.1094 Q301.4956,56.9375 302.5894,55.3125 Q303.6988,53.6719 305.8394,53.6719 Q307.9956,53.6719 309.0894,55.3125 Q310.1988,56.9375 310.1988,60.1094 Q310.1988,63.2813 309.0894,64.9063 Q307.9956,66.5313 305.8394,66.5313 Q303.6988,66.5313 302.5894,64.9063 Q301.4956,63.2813 301.4956,60.1094 Z " fill="#000000"/><text fill="#000000" font-family="sans-serif" font-size="14" lengthAdjust="spacing" textLength="113.1553" x="319.73" y="65.1436">Number_ounces</text><line style="stroke:#181818;stroke-width:0.5;" x1="291.73" x2="434.8853" y1="76.2969" y2="76.2969"/><text fill="#000000" font-family="sans-serif" font-size="14" lengthAdjust="spacing" textLength="49.916" x="296.73" y="93.292">ounces</text><text fill="#000000" font-family="sans-serif" font-size="14" lengthAdjust="spacing" textLength="60.2588" x="296.73" y="109.5889">[-inf, inf]</text></g><!--class Outlier_abv--><g class="entity" data-qualified-name="Outlier_abv" data-source-line="39" id="ent0011"><rect fill="#F1F1F1" height="72.5938" rx="2.5" ry="2.5" style="stroke:#181818;stroke-width:0.5;" width="112.2813" x="520.16" y="44.2969"/><ellipse cx="535.16" cy="60.2969" fill="#DA70D6" rx="11" ry="11" style="stroke:#181818;stroke-width:1;"/><path d="M535.2694,55.875 Q534.3319,55.875 533.8944,56.875 Q533.4725,57.875 533.4725,60.1094 Q533.4725,62.3438 533.8944,63.3438 Q534.3319,64.3438 535.2694,64.3438 Q536.2225,64.3438 536.6444,63.3438 Q537.0819,62.3438 537.0819,60.1094 Q537.0819,57.875 536.6444,56.875 Q536.2225,55.875 535.2694,55.875 Z M530.9256,60.1094 Q530.9256,56.9375 532.0194,55.3125 Q533.1288,53.6719 535.2694,53.6719 Q537.4256,53.6719 538.5194,55.3125 Q539.6288,56.9375 539.6288,60.1094 Q539.6288,63.2813 538.5194,64.9063 Q537.4256,66.5313 535.2694,66.5313 Q533.1288,66.5313 532.0194,64.9063 Q530.9256,63.2813 530.9256,60.1094 Z " fill="#000000"/><text fill="#000000" font-family="sans-serif" font-size="14" lengthAdjust="spacing" textLength="80.2813" x="549.16" y="65.1436">Outlier_abv</text><line style="stroke:#181818;stroke-width:0.5;" x1="521.16" x2="631.4413" y1="76.2969" y2="76.2969"/><text fill="#000000" font-family="sans-serif" font-size="14" lengthAdjust="spacing" textLength="25.751" x="526.16" y="93.292">abv</text><text fill="#000000" font-family="sans-serif" font-size="14" lengthAdjust="spacing" textLength="60.2588" x="526.16" y="109.5889">[-inf, inf]</text></g><!--class level_2_end--><g class="entity" data-qualified-name="level_2_end" data-source-line="45" id="ent0015"><rect fill="#F1F1F1" height="32" rx="2.5" ry="2.5" style="stroke:#181818;stroke-width:0.5;" width="114.5713" x="412.02" y="452.4869"/><ellipse cx="427.02" cy="468.4869" fill="#ADD1B2" rx="11" ry="11" style="stroke:#181818;stroke-width:1;"/><path d="M429.9888,474.1275 Q429.4106,474.4244 428.77,474.565 Q428.1294,474.7213 427.4263,474.7213 Q424.9263,474.7213 423.5981,473.0806 Q422.2856,471.4244 422.2856,468.2994 Q422.2856,465.1744 423.5981,463.5181 Q424.9263,461.8619 427.4263,461.8619 Q428.1294,461.8619 428.77,462.0181 Q429.4263,462.1744 429.9888,462.4713 L429.9888,465.19 Q429.3638,464.6119 428.77,464.3463 Q428.1763,464.065 427.5513,464.065 Q426.2075,464.065 425.52,465.1431 Q424.8325,466.2056 424.8325,468.2994 Q424.8325,470.3931 425.52,471.4713 Q426.2075,472.5338 427.5513,472.5338 Q428.1763,472.5338 428.77,472.2681 Q429.3638,471.9869 429.9888,471.4088 L429.9888,474.1275 Z " fill="#000000"/><text fill="#000000" font-family="sans-serif" font-size="14" lengthAdjust="spacing" textLength="82.5713" x="441.02" y="473.3336">level_2_end</text></g><!--link Number_ounces to SINGLE_END--><g class="link" data-entity-1="ent0009" data-entity-2="ent0002" data-link-type="dependency" data-source-line="38" id="lnk10"><path codeLine="38" d="M392.83,117.0569 C413.78,142.2169 437.0206,170.1261 452.7006,188.9561" fill="none" id="Number_ounces-to-SINGLE_END" style="stroke:#181818;stroke-width:1;"/><polygon fill="#181818" points="456.54,193.5669,453.8547,184.0912,453.3405,189.7246,447.707,189.2104,456.54,193.5669" style="stroke:#181818;stroke-width:1;"/><text fill="#000000" font-family="sans-serif" font-size="13" lengthAdjust="spacing" textLength="29.0278" x="430.3" y="159.9638">next</text></g><!--link Number_ounces to Outlier_abv--><g class="link" data-entity-1="ent0009" data-entity-2="ent0011" data-link-type="dependency" data-source-line="42" id="lnk12"><path codeLine="42" d="M442.31,80.5969 C469.65,80.5969 488.26,80.5969 513.87,80.5969" fill="none" id="Number_ounces-Outlier_abv" style="stroke:#181818;stroke-width:1;"/><polygon fill="#181818" points="436.31,80.5969,445.31,84.5969,441.31,80.5969,445.31,76.5969,436.31,80.5969" style="stroke:#181818;stroke-width:1;"/><polygon fill="#181818" points="519.87,80.5969,510.87,76.5969,514.87,80.5969,510.87,84.5969,519.87,80.5969" style="stroke:#181818;stroke-width:1;"/><text fill="#000000" font-family="sans-serif" font-size="13" lengthAdjust="spacing" textLength="48.3628" x="454.02" y="73.6638">parallel</text></g><!--link Outlier_abv to SINGLE_END--><g class="link" data-entity-1="ent0011" data-entity-2="ent0002" data-link-type="dependency" data-source-line="43" id="lnk13"><path codeLine="43" d="M546.5,117.0569 C525.35,142.2169 501.8696,170.143 486.0496,188.973" fill="none" id="Outlier_abv-to-SINGLE_END" style="stroke:#181818;stroke-width:1;"/><polygon fill="#181818" points="482.19,193.5669,491.0419,189.2491,485.4063,189.7386,484.9167,184.103,482.19,193.5669" style="stroke:#181818;stroke-width:1;"/><text fill="#000000" font-family="sans-serif" font-size="13" lengthAdjust="spacing" textLength="29.0278" x="520.3" y="159.9638">next</text></g><!--link SINGLE_END to 0--><g class="link" data-entity-1="ent0002" data-entity-2="ent0004" data-link-type="dependency" data-source-line="44" id="lnk14"><path codeLine="44" d="M423.22,226.2669 C368.74,244.4669 275.37,275.7269 195.3,302.8969 C189.66,304.8069 189.5303,304.8546 183.6803,306.8446" fill="none" id="SINGLE_END-to-0" style="stroke:#181818;stroke-width:1;"/><polygon fill="#181818" points="178,308.7769,187.8087,309.6653,182.7336,307.1666,185.2323,302.0916,178,308.7769" style="stroke:#181818;stroke-width:1;"/><text fill="#000000" font-family="sans-serif" font-size="13" lengthAdjust="spacing" textLength="29.0278" x="331.3" y="268.9638">next</text></g><!--link 0 to level_2_end--><g class="link" data-entity-1="ent0004" data-entity-2="ent0015" data-link-type="dependency" data-source-line="45" id="lnk16"><path codeLine="45" d="M178,369.6069 C183.85,371.5969 189.66,373.5769 195.3,375.4869 C275.37,402.6469 363.0492,432.0057 417.5292,450.2057" fill="none" id="0-to-level_2_end" style="stroke:#181818;stroke-width:1;"/><polygon fill="#181818" points="423.22,452.1069,415.9512,445.4613,418.4776,450.5226,413.4163,453.0491,423.22,452.1069" style="stroke:#181818;stroke-width:1;"/><text fill="#000000" font-family="sans-serif" font-size="13" lengthAdjust="spacing" textLength="29.0278" x="331.3" y="418.5538">next</text></g><!--link SINGLE_END to 1--><g class="link" data-entity-1="ent0002" data-entity-2="ent0005" data-link-type="dependency" data-source-line="46" id="lnk17"><path codeLine="46" d="M447.23,226.2469 C420.23,245.0269 378.5954,273.9905 342.4854,299.1105" fill="none" id="SINGLE_END-to-1" style="stroke:#181818;stroke-width:1;"/><polygon fill="#181818" points="337.56,302.5369,347.2324,300.6809,341.6645,299.6816,342.6639,294.1137,337.56,302.5369" style="stroke:#181818;stroke-width:1;"/><text fill="#000000" font-family="sans-serif" font-size="13" lengthAdjust="spacing" textLength="29.0278" x="401.3" y="268.9638">next</text></g><!--link 1 to level_2_end--><g class="link" data-entity-1="ent0005" data-entity-2="ent0015" data-link-type="dependency" data-source-line="47" id="lnk18"><path codeLine="47" d="M337.28,375.6469 C373.45,400.8069 415.2842,429.911 442.3442,448.731" fill="none" id="1-to-level_2_end" style="stroke:#181818;stroke-width:1;"/><polygon fill="#181818" points="447.27,452.1569,442.1652,443.7342,443.1652,449.302,437.5974,450.302,447.27,452.1569" style="stroke:#181818;stroke-width:1;"/><text fill="#000000" font-family="sans-serif" font-size="13" lengthAdjust="spacing" textLength="29.0278" x="401.3" y="418.5538">next</text></g><!--link SINGLE_END to 2--><g class="link" data-entity-1="ent0002" data-entity-2="ent0006" data-link-type="dependency" data-source-line="48" id="lnk19"><path codeLine="48" d="M469.3,225.9969 C469.3,244.7669 469.3,271.4069 469.3,296.6569" fill="none" id="SINGLE_END-to-2" style="stroke:#181818;stroke-width:1;"/><polygon fill="#181818" points="469.3,302.6569,473.3,293.6569,469.3,297.6569,465.3,293.6569,469.3,302.6569" style="stroke:#181818;stroke-width:1;"/><text fill="#000000" font-family="sans-serif" font-size="13" lengthAdjust="spacing" textLength="29.0278" x="470.3" y="268.9638">next</text></g><!--link 2 to level_2_end--><g class="link" data-entity-1="ent0006" data-entity-2="ent0015" data-link-type="dependency" data-source-line="49" id="lnk20"><path codeLine="49" d="M469.3,375.6469 C469.3,400.8069 469.3,427.3369 469.3,446.1569" fill="none" id="2-to-level_2_end" style="stroke:#181818;stroke-width:1;"/><polygon fill="#181818" points="469.3,452.1569,473.3,443.1569,469.3,447.1569,465.3,443.1569,469.3,452.1569" style="stroke:#181818;stroke-width:1;"/><text fill="#000000" font-family="sans-serif" font-size="13" lengthAdjust="spacing" textLength="29.0278" x="470.3" y="418.5538">next</text></g><!--link SINGLE_END to fd_abv--><g class="link" data-entity-1="ent0002" data-entity-2="ent0007" data-link-type="dependency" data-source-line="50" id="lnk21"><path codeLine="50" d="M496.08,226.2469 C528.83,245.0269 580.1149,274.4324 623.9249,299.5524" fill="none" id="SINGLE_END-to-fd_abv" style="stroke:#181818;stroke-width:1;"/><polygon fill="#181818" points="629.13,302.5369,623.3121,294.5901,624.7924,300.0498,619.3327,301.5302,629.13,302.5369" style="stroke:#181818;stroke-width:1;"/><text fill="#000000" font-family="sans-serif" font-size="13" lengthAdjust="spacing" textLength="29.0278" x="574.3" y="268.9638">next</text></g><!--link fd_abv to level_2_end--><g class="link" data-entity-1="ent0007" data-entity-2="ent0015" data-link-type="dependency" data-source-line="51" id="lnk22"><path codeLine="51" d="M629.17,375.8169 C585.43,400.8969 534.2452,430.2525 501.4552,449.0525" fill="none" id="fd_abv-to-level_2_end" style="stroke:#181818;stroke-width:1;"/><polygon fill="#181818" points="496.25,452.0369,506.0473,451.0304,500.5876,449.5499,502.0682,444.0902,496.25,452.0369" style="stroke:#181818;stroke-width:1;"/><text fill="#000000" font-family="sans-serif" font-size="13" lengthAdjust="spacing" textLength="29.0278" x="574.3" y="418.5538">next</text></g><!--link SINGLE_END to fd_ibu--><g class="link" data-entity-1="ent0002" data-entity-2="ent0008" data-link-type="dependency" data-source-line="52" id="lnk23"><path codeLine="52" d="M529.31,226.3369 C599.59,244.4669 719.48,275.5369 822.3,302.8969 C827.73,304.3369 827.4843,304.2645 833.0843,305.7645" fill="none" id="SINGLE_END-to-fd_ibu" style="stroke:#181818;stroke-width:1;"/><polygon fill="#181818" points="838.88,307.3169,831.2214,301.1245,834.0503,306.0232,829.1515,308.852,838.88,307.3169" style="stroke:#181818;stroke-width:1;"/><text fill="#000000" font-family="sans-serif" font-size="13" lengthAdjust="spacing" textLength="29.0278" x="706.3" y="268.9638">next</text></g><!--link fd_ibu to level_2_end--><g class="link" data-entity-1="ent0008" data-entity-2="ent0015" data-link-type="dependency" data-source-line="53" id="lnk24"><path codeLine="53" d="M838.88,371.0569 C833.28,372.5569 827.73,374.0469 822.3,375.4869 C718.26,403.1669 602.5399,433.1585 532.6299,451.1885" fill="none" id="fd_ibu-to-level_2_end" style="stroke:#181818;stroke-width:1;"/><polygon fill="#181818" points="526.82,452.6869,536.5338,454.3126,531.6616,451.4382,534.5359,446.566,526.82,452.6869" style="stroke:#181818;stroke-width:1;"/><text fill="#000000" font-family="sans-serif" font-size="13" lengthAdjust="spacing" textLength="29.0278" x="706.3" y="418.5538">next</text></g><?plantuml-src bLDDgzD05DtFhxYkV84NQBAKMh2rYF1eG9SYOPgvJOStcIatazSM4GJTYFW3T2suU-1E4Vqrbkg_S9Bq8-bxLPf59lVSSywzCxbpH-14QeGdcDXeXiIjeRE51udYUGuBw7RXB3e7GybK2WzwFSRoIwbdd7W6v4HSfmhX1GFtz7bocP8fj1WOPQZRZNezk93frFPLWJN5a42gqj1NZb-X3uZCl0c-PCnAwum7XbEEVahSTIbWe91h91WkC2ciD1gYqgzitsGPQi5BaB6xwy_V_tpuzElRkzNRz-kFRrPVNw--lFfz_NFzuvgvdI1WDhDB49Wd96ULg05dQAT6v4re8b4vXBKEwkdZqQEBOJmSFVGECWglKCL1x5ewJ7Kyre5xa9k24hm_9fmZBMCfAjHoIj7kKCqpRAi3ZmMtgeEzEf5ssLQ57WjlLOLxLMwvFIWs4J4VNtciNXi6Y5Jrrd3QSJPsBhXX9iT5PURM_vhLd8sP2zfceo8REvcRjGHpZxL29wi_Ri3FVAadv-1UpmzolZ1pxVTW_qSTNUF2jij6XLNIgQfJQGIENEwtZHolrlMfl1MkNbjHNYkbKBMCZhVMGBQapZRNsK7rA8RbAFv366npmOd2S9iBJnJk1gOYRAAJBUensLgKqN6Blm00?></g></svg>